<?xml version="1.0" encoding="UTF-8"?>
<svg width="88px" height="48px" viewBox="0 0 88 48" version="1.1" xmlns="http://www.w3.org/2000/svg" xmlns:xlink="http://www.w3.org/1999/xlink">
    <!-- Generator: Sketch 53.2 (72643) - https://sketchapp.com -->
    <title>initials copy 5</title>
    <desc>Created with Sketch.</desc>
    <defs>
        <polygon id="path-1" points="0.320527059 0.365668085 54.9554824 0.365668085 54.9554824 25.5319149 0.320527059 25.5319149"></polygon>
        <polygon id="path-3" points="0 0.365617021 8.57834353 0.365617021 8.57834353 24.8947404 0 24.8947404"></polygon>
        <polygon id="path-5" points="0.16016 0.365617021 8.73860706 0.365617021 8.73860706 24.8947404 0.16016 24.8947404"></polygon>
    </defs>
    <g id="V4" stroke="none" stroke-width="1" fill="none" fill-rule="evenodd">
        <g id="Logo-Copy" transform="translate(-1412.000000, -1608.000000)">
            <g id="initials-copy-5" transform="translate(1412.000000, 1608.000000)">
                <g id="Group-Copy">
                    <rect id="Rectangle-Copy-2" fill="#000000" x="0" y="0" width="88" height="48"></rect>
                    <g id="Group-10" transform="translate(11.905882, 11.234043)">
                        <g id="Group-3" transform="translate(9.317647, 0.145123)">
                            <mask id="mask-2" fill="white">
                                <use xlink:href="#path-1"></use>
                            </mask>
                            <g id="Clip-2"></g>
                            <path d="M49.5963859,0.366178723 L49.5963859,15.4723915 L49.5974212,15.5091574 C49.5984565,15.529583 49.7066447,17.5874553 48.3607624,18.996817 C47.4864565,19.9118809 46.1737035,20.3760511 44.4582212,20.3760511 C42.7427388,20.3760511 41.4299859,19.9118809 40.5567153,18.996817 C39.2113506,17.587966 39.3200565,15.529583 39.3210918,15.5106894 L39.3226447,0.366178723 L37.1122918,0.366178723 L33.9608565,11.7891574 L33.9608565,15.3416681 C33.9608565,18.3651574 34.9547388,20.9265191 36.8343153,22.7494979 C38.7113035,24.5699234 41.3471624,25.531966 44.4582212,25.531966 C47.5687624,25.531966 50.2051388,24.5699234 52.0821271,22.7494979 C53.9617035,20.9265191 54.9555859,18.3651574 54.9555859,15.3416681 L54.9555859,0.366178723 L49.5963859,0.366178723 Z M33.9608565,0.365668085 L27.1946918,24.8946894 L22.2853271,24.8946894 L17.1580329,8.63443404 L12.0302212,24.8946894 L7.15450353,24.8946894 L0.320527059,0.365668085 L5.64090353,0.365668085 L9.82297412,15.8885617 L14.7116329,0.365668085 L19.6354918,0.365668085 L24.6111153,16.0049872 L28.7041506,0.365668085 L33.9608565,0.365668085 Z" id="Fill-1" fill="#FFDD00" mask="url(#mask-2)"></path>
                        </g>
                        <g id="Group-6" transform="translate(0.000000, 0.145123)">
                            <mask id="mask-4" fill="white">
                                <use xlink:href="#path-3"></use>
                            </mask>
                            <g id="Clip-5"></g>
                            <polygon id="Fill-4" fill="#FFFFFF" mask="url(#mask-4)" points="6.83387294 24.8947404 -0.000103529406 0.365208511 1.74436706 0.365208511 8.57834353 24.8947404"></polygon>
                        </g>
                        <g id="Group-9" transform="translate(4.658824, 0.145123)">
                            <mask id="mask-6" fill="white">
                                <use xlink:href="#path-5"></use>
                            </mask>
                            <g id="Clip-8"></g>
                            <polygon id="Fill-7" fill="#FFFFFF" mask="url(#mask-6)" points="6.99413647 24.8947404 0.16016 0.365208511 1.90463059 0.365208511 8.73860706 24.8947404"></polygon>
                        </g>
                    </g>
                </g>
            </g>
        </g>
    </g>
</svg>